<svg version="1.1" viewBox="0.0 0.0 604.7244094488188 340.15748031496065" fill="none" stroke="none" stroke-linecap="square" stroke-miterlimit="10" xmlns:xlink="http://www.w3.org/1999/xlink" xmlns="http://www.w3.org/2000/svg"><clipPath id="p.0"><path d="m0 0l604.7244 0l0 340.15747l-604.7244 0l0 -340.15747z" clip-rule="nonzero"/></clipPath><g clip-path="url(#p.0)"><path fill="#000000" fill-opacity="0.0" d="m0 0l604.7244 0l0 340.15747l-604.7244 0z" fill-rule="evenodd"/><path fill="#000000" fill-opacity="0.0" d="m156.1159 97.17269l0 182.10065" fill-rule="evenodd"/><path stroke="#595959" stroke-width="1.0" stroke-linejoin="round" stroke-linecap="butt" d="m156.1159 97.17269l0 182.10065" fill-rule="evenodd"/><path fill="#3cb371" d="m144.13399 139.8432l23.963837 0l0 96.75963l-23.963837 0z" fill-rule="evenodd"/><path stroke="#595959" stroke-width="1.0" stroke-linejoin="round" stroke-linecap="butt" d="m144.13399 139.8432l23.963837 0l0 96.75963l-23.963837 0z" fill-rule="evenodd"/><path fill="#000000" fill-opacity="0.0" d="m86.63835 235.49275l55.149612 0" fill-rule="evenodd"/><path stroke="#595959" stroke-width="1.0" stroke-linejoin="round" stroke-linecap="butt" d="m86.63836 235.49277l49.149605 0" fill-rule="evenodd"/><path fill="#595959" stroke="#595959" stroke-width="1.0" stroke-linecap="butt" d="m135.78796 237.1445l4.538101 -1.6517334l-4.538101 -1.6517334z" fill-rule="evenodd"/><path fill="#000000" fill-opacity="0.0" d="m54.04586 194.67174l101.54331 0l0 35.338593l-101.54331 0z" fill-rule="evenodd"/><path fill="#000000" d="m101.22979 220.45361q0 -2.859375 1.53125 -4.46875q1.53125 -1.609375 3.953125 -1.609375q1.578125 0 2.84375 0.765625q1.28125 0.75 1.953125 2.109375q0.671875 1.34375 0.671875 3.0625q0 1.75 -0.703125 3.125q-0.703125 1.375 -2.0 2.09375q-1.28125 0.703125 -2.78125 0.703125q-1.609375 0 -2.890625 -0.78125q-1.265625 -0.796875 -1.921875 -2.140625q-0.65625 -1.359375 -0.65625 -2.859375zm1.5625 0.015625q0 2.078125 1.109375 3.265625q1.109375 1.1875 2.796875 1.1875q1.703125 0 2.8125 -1.203125q1.109375 -1.203125 1.109375 -3.40625q0 -1.40625 -0.484375 -2.4375q-0.46875 -1.046875 -1.375 -1.625q-0.90625 -0.578125 -2.046875 -0.578125q-1.609375 0 -2.765625 1.109375q-1.15625 1.109375 -1.15625 3.6875zm11.1640625 8.75l0 -11.484375l1.28125 0l0 1.078125q0.453125 -0.640625 1.015625 -0.953125q0.578125 -0.3125 1.390625 -0.3125q1.0625 0 1.875 0.546875q0.8125 0.546875 1.21875 1.546875q0.421875 0.984375 0.421875 2.171875q0 1.28125 -0.46875 2.296875q-0.453125 1.015625 -1.328125 1.5625q-0.859375 0.546875 -1.828125 0.546875q-0.703125 0 -1.265625 -0.296875q-0.546875 -0.296875 -0.90625 -0.75l0 4.046875l-1.40625 0zm1.265625 -7.296875q0 1.609375 0.640625 2.375q0.65625 0.765625 1.578125 0.765625q0.9375 0 1.609375 -0.796875q0.671875 -0.796875 0.671875 -2.453125q0 -1.59375 -0.65625 -2.375q-0.65625 -0.796875 -1.5625 -0.796875q-0.890625 0 -1.59375 0.84375q-0.6875 0.84375 -0.6875 2.4375zm13.304695 1.4375l1.453125 0.171875q-0.34375 1.28125 -1.28125 1.984375q-0.9218826 0.703125 -2.3593826 0.703125q-1.828125 0 -2.890625 -1.125q-1.0625 -1.125 -1.0625 -3.140625q0 -2.09375 1.078125 -3.25q1.078125 -1.15625 2.796875 -1.15625q1.65625 0 2.7031326 1.140625q1.0625 1.125 1.0625 3.171875q0 0.125 0 0.375l-6.1875076 0q0.078125 1.375 0.765625 2.109375q0.703125 0.71875 1.734375 0.71875q0.78125 0 1.328125 -0.40625q0.5468826 -0.40625 0.8593826 -1.296875zm-4.6093826 -2.28125l4.6250076 0q-0.09375 -1.046875 -0.53125 -1.5625q-0.6718826 -0.8125 -1.7343826 -0.8125q-0.96875 0 -1.640625 0.65625q-0.65625 0.640625 -0.71875 1.71875zm7.835945 4.953125l0 -8.296875l1.265625 0l0 1.171875q0.90625 -1.359375 2.640625 -1.359375q0.75 0 1.375 0.265625q0.625 0.265625 0.9375 0.703125q0.3125 0.4375 0.4375 1.046875q0.078125 0.390625 0.078125 1.359375l0 5.109375l-1.40625 0l0 -5.046875q0 -0.859375 -0.171875 -1.28125q-0.15625 -0.4375 -0.578125 -0.6875q-0.40625 -0.25 -0.96875 -0.25q-0.90625 0 -1.5625 0.578125q-0.640625 0.5625 -0.640625 2.15625l0 4.53125l-1.40625 0z" fill-rule="nonzero"/><path fill="#000000" fill-opacity="0.0" d="m171.05952 278.35974l55.149597 0" fill-rule="evenodd"/><path stroke="#595959" stroke-width="1.0" stroke-linejoin="round" stroke-linecap="butt" d="m177.05951 278.35974l49.149628 0" fill-rule="evenodd"/><path fill="#595959" stroke="#595959" stroke-width="1.0" stroke-linecap="butt" d="m177.05951 276.708l-4.538086 1.6517334l4.538086 1.6517334z" fill-rule="evenodd"/><path fill="#000000" fill-opacity="0.0" d="m153.50792 237.53874l101.543304 0l0 35.338577l-101.543304 0z" fill-rule="evenodd"/><path fill="#000000" d="m170.6798 268.89874l0 -11.453125l1.515625 0l0 10.09375l5.640625 0l0 1.359375l-7.15625 0zm8.2578125 -4.15625q0 -2.296875 1.28125 -3.40625q1.078125 -0.921875 2.609375 -0.921875q1.71875 0 2.796875 1.125q1.09375 1.109375 1.09375 3.09375q0 1.59375 -0.484375 2.515625q-0.484375 0.921875 -1.40625 1.4375q-0.90625 0.5 -2.0 0.5q-1.734375 0 -2.8125 -1.109375q-1.078125 -1.125 -1.078125 -3.234375zm1.453125 0q0 1.59375 0.6875 2.390625q0.703125 0.796875 1.75 0.796875q1.046875 0 1.734375 -0.796875q0.703125 -0.796875 0.703125 -2.4375q0 -1.53125 -0.703125 -2.328125q-0.6875 -0.796875 -1.734375 -0.796875q-1.046875 0 -1.75 0.796875q-0.6875 0.78125 -0.6875 2.375zm9.5078125 4.15625l-2.546875 -8.296875l1.453125 0l1.328125 4.78125l0.484375 1.78125q0.03125 -0.125 0.4375 -1.703125l1.3125 -4.859375l1.453125 0l1.234375 4.8125l0.421875 1.578125l0.46875 -1.59375l1.421875 -4.796875l1.375 0l-2.59375 8.296875l-1.46875 0l-1.3125 -4.96875l-0.328125 -1.421875l-1.671875 6.390625l-1.46875 0z" fill-rule="nonzero"/><path fill="#000000" fill-opacity="0.0" d="m170.87651 140.3824l55.149612 0" fill-rule="evenodd"/><path stroke="#595959" stroke-width="1.0" stroke-linejoin="round" stroke-linecap="butt" d="m176.8765 140.3824l49.149628 0" fill-rule="evenodd"/><path fill="#595959" stroke="#595959" stroke-width="1.0" stroke-linecap="butt" d="m176.87651 138.73067l-4.538101 1.6517334l4.538101 1.6517334z" fill-rule="evenodd"/><path fill="#000000" fill-opacity="0.0" d="m153.3249 99.56139l101.543304 0l0 35.338585l-101.543304 0z" fill-rule="evenodd"/><path fill="#000000" d="m178.73116 126.90577l1.515625 0.375q-0.46875 1.8750076 -1.71875 2.8593826q-1.234375 0.984375 -3.015625 0.984375q-1.859375 0 -3.015625 -0.75q-1.15625 -0.765625 -1.765625 -2.1875q-0.609375 -1.4375076 -0.609375 -3.0781326q0 -1.796875 0.6875 -3.125q0.6875 -1.328125 1.9375 -2.015625q1.265625 -0.703125 2.78125 -0.703125q1.71875 0 2.890625 0.875q1.171875 0.875 1.640625 2.46875l-1.5 0.34375q-0.390625 -1.25 -1.15625 -1.8125q-0.75 -0.578125 -1.90625 -0.578125q-1.3125 0 -2.203125 0.640625q-0.890625 0.625 -1.25 1.703125q-0.359375 1.0625 -0.359375 2.1875q0 1.46875 0.421875 2.5625q0.4375 1.0781326 1.328125 1.6250076q0.90625 0.53125 1.953125 0.53125q1.265625 0 2.140625 -0.734375q0.890625 -0.734375 1.203125 -2.1718826zm3.1796875 4.0156326l0 -11.453133l1.40625 0l0 11.453133l-1.40625 0zm3.0546875 -4.1562576q0 -2.296875 1.28125 -3.40625q1.078125 -0.921875 2.609375 -0.921875q1.71875 0 2.796875 1.125q1.09375 1.109375 1.09375 3.09375q0 1.5937576 -0.484375 2.5156326q-0.484375 0.921875 -1.40625 1.4375q-0.90625 0.5 -2.0 0.5q-1.734375 0 -2.8125 -1.109375q-1.078125 -1.125 -1.078125 -3.2343826zm1.453125 0q0 1.5937576 0.6875 2.3906326q0.703125 0.796875 1.75 0.796875q1.046875 0 1.734375 -0.796875q0.703125 -0.796875 0.703125 -2.4375076q0 -1.53125 -0.703125 -2.328125q-0.6875 -0.796875 -1.734375 -0.796875q-1.046875 0 -1.75 0.796875q-0.6875 0.78125 -0.6875 2.375zm7.4140625 1.6718826l1.390625 -0.21875q0.109375 0.84375 0.640625 1.296875q0.546875 0.4375 1.5 0.4375q0.96875 0 1.4375 -0.390625q0.46875 -0.40625 0.46875 -0.9375q0 -0.46875 -0.40625 -0.7500076q-0.296875 -0.1875 -1.4375 -0.46875q-1.546875 -0.390625 -2.15625 -0.671875q-0.59375 -0.296875 -0.90625 -0.796875q-0.296875 -0.5 -0.296875 -1.109375q0 -0.5625 0.25 -1.03125q0.25 -0.46875 0.6875 -0.78125q0.328125 -0.25 0.890625 -0.40625q0.578125 -0.171875 1.21875 -0.171875q0.984375 0 1.71875 0.28125q0.734375 0.28125 1.078125 0.765625q0.359375 0.46875 0.5 1.28125l-1.375 0.1875q-0.09375 -0.640625 -0.546875 -1.0q-0.453125 -0.359375 -1.265625 -0.359375q-0.96875 0 -1.390625 0.328125q-0.40625 0.3125 -0.40625 0.734375q0 0.28125 0.171875 0.5q0.171875 0.21875 0.53125 0.375q0.21875 0.078125 1.25 0.359375q1.484375 0.390625 2.078125 0.65625q0.59375 0.25 0.921875 0.734375q0.34375 0.484375 0.34375 1.2031326q0 0.703125 -0.421875 1.328125q-0.40625 0.609375 -1.1875 0.953125q-0.765625 0.34375 -1.734375 0.34375q-1.625 0 -2.46875 -0.671875q-0.84375 -0.671875 -1.078125 -2.0zm14.234375 -0.1875l1.453125 0.171875q-0.34375 1.28125 -1.28125 1.984375q-0.921875 0.703125 -2.359375 0.703125q-1.828125 0 -2.890625 -1.125q-1.0625 -1.125 -1.0625 -3.1406326q0 -2.09375 1.078125 -3.25q1.078125 -1.15625 2.796875 -1.15625q1.65625 0 2.703125 1.140625q1.0625 1.125 1.0625 3.171875q0 0.125 0 0.375l-6.1875 0q0.078125 1.3750076 0.765625 2.1093826q0.703125 0.71875 1.734375 0.71875q0.78125 0 1.328125 -0.40625q0.546875 -0.40625 0.859375 -1.296875zm-4.609375 -2.2812576l4.625 0q-0.09375 -1.046875 -0.53125 -1.5625q-0.671875 -0.8125 -1.734375 -0.8125q-0.96875 0 -1.640625 0.65625q-0.65625 0.640625 -0.71875 1.71875z" fill-rule="nonzero"/><path fill="#000000" fill-opacity="0.0" d="m170.50513 95.720085l55.149612 0" fill-rule="evenodd"/><path stroke="#595959" stroke-width="1.0" stroke-linejoin="round" stroke-linecap="butt" d="m176.50513 95.720085l49.149612 0" fill-rule="evenodd"/><path fill="#595959" stroke="#595959" stroke-width="1.0" stroke-linecap="butt" d="m176.50514 94.06835l-4.538101 1.6517334l4.538101 1.6517334z" fill-rule="evenodd"/><path fill="#000000" fill-opacity="0.0" d="m152.95352 54.89907l101.54332 0l0 35.338585l-101.54332 0z" fill-rule="evenodd"/><path fill="#000000" d="m170.23477 86.25907l0 -11.453125l1.515625 0l0 4.703125l5.953125 0l0 -4.703125l1.515625 0l0 11.453125l-1.515625 0l0 -5.40625l-5.953125 0l0 5.40625l-1.515625 0zm11.3359375 -9.84375l0 -1.609375l1.40625 0l0 1.609375l-1.40625 0zm0 9.84375l0 -8.296875l1.40625 0l0 8.296875l-1.40625 0zm3.2890625 0.6875l1.375 0.203125q0.078125 0.640625 0.46875 0.921875q0.53125 0.390625 1.4375 0.390625q0.96875 0 1.5 -0.390625q0.53125 -0.390625 0.71875 -1.09375q0.109375 -0.421875 0.109375 -1.8125q-0.921875 1.09375 -2.296875 1.09375q-1.71875 0 -2.65625 -1.234375q-0.9375 -1.234375 -0.9375 -2.96875q0 -1.1875 0.421875 -2.1875q0.4375 -1.0 1.25 -1.546875q0.828125 -0.546875 1.921875 -0.546875q1.46875 0 2.421875 1.1875l0 -1.0l1.296875 0l0 7.171875q0 1.9375 -0.390625 2.75q-0.390625 0.8125 -1.25 1.28125q-0.859375 0.46875 -2.109375 0.46875q-1.484375 0 -2.40625 -0.671875q-0.90625 -0.671875 -0.875 -2.015625zm1.171875 -4.984375q0 1.625 0.640625 2.375q0.65625 0.75 1.625 0.75q0.96875 0 1.625 -0.734375q0.65625 -0.75 0.65625 -2.34375q0 -1.53125 -0.671875 -2.296875q-0.671875 -0.78125 -1.625 -0.78125q-0.9375 0 -1.59375 0.765625q-0.65625 0.765625 -0.65625 2.265625zm7.9921875 4.296875l0 -11.453125l1.40625 0l0 4.109375q0.984375 -1.140625 2.484375 -1.140625q0.921875 0 1.59375 0.359375q0.6875 0.359375 0.96875 1.0q0.296875 0.640625 0.296875 1.859375l0 5.265625l-1.40625 0l0 -5.265625q0 -1.046875 -0.453125 -1.53125q-0.453125 -0.484375 -1.296875 -0.484375q-0.625 0 -1.171875 0.328125q-0.546875 0.328125 -0.78125 0.890625q-0.234375 0.546875 -0.234375 1.515625l0 4.546875l-1.40625 0z" fill-rule="nonzero"/><path fill="#000000" fill-opacity="0.0" d="m58.005493 15.716536l196.22047 0l0 35.338585l-196.22047 0z" fill-rule="evenodd"/><path fill="#000000" d="m89.79151 36.60403l5.71875 0q1.703125 0 2.53125 0.140625q0.84375 0.140625 1.5 0.59375q0.65625 0.4375 1.09375 1.1875q0.4375 0.75 0.4375 1.671875q0 1.015625 -0.546875 1.859375q-0.53125 0.828125 -1.453125 1.25q1.296875 0.375 2.0 1.296875q0.703125 0.921875 0.703125 2.15625q0 0.984375 -0.453125 1.90625q-0.453125 0.921875 -1.234375 1.484375q-0.78125 0.546875 -1.9375 0.671875q-0.71875 0.078125 -3.484375 0.09375l-4.875 0l0 -14.3125zm2.890625 2.375l0 3.3125l1.890625 0q1.6875 0 2.09375 -0.046875q0.75 -0.09375 1.171875 -0.515625q0.421875 -0.421875 0.421875 -1.109375q0 -0.671875 -0.375 -1.078125q-0.359375 -0.421875 -1.078125 -0.515625q-0.421875 -0.046875 -2.46875 -0.046875l-1.65625 0zm0 5.703125l0 3.828125l2.671875 0q1.5625 0 1.984375 -0.09375q0.640625 -0.125 1.046875 -0.578125q0.40625 -0.453125 0.40625 -1.203125q0 -0.65625 -0.3125 -1.09375q-0.3125 -0.453125 -0.90625 -0.65625q-0.59375 -0.203125 -2.5625 -0.203125l-2.328125 0zm18.34961 6.234375l0 -1.546875q-0.5625 0.828125 -1.5 1.3125q-0.921875 0.46875 -1.9375 0.46875q-1.046875 0 -1.875 -0.453125q-0.828125 -0.46875 -1.203125 -1.296875q-0.375 -0.828125 -0.375 -2.296875l0 -6.5625l2.75 0l0 4.765625q0 2.1875 0.140625 2.6875q0.15625 0.484375 0.546875 0.78125q0.40625 0.28125 1.03125 0.28125q0.703125 0 1.25 -0.375q0.5625 -0.390625 0.765625 -0.953125q0.203125 -0.578125 0.203125 -2.8125l0 -4.375l2.75 0l0 10.375l-2.546875 0zm5.388672 0l0 -14.3125l2.75 0l0 14.3125l-2.75 0zm5.5566406 0l0 -14.3125l2.75 0l0 14.3125l-2.75 0zm5.5566406 -11.78125l0 -2.53125l2.7500076 0l0 2.53125l-2.7500076 0zm0 11.78125l0 -10.375l2.7500076 0l0 10.375l-2.7500076 0zm4.5878983 -2.953125l2.75 -0.421875q0.1875 0.796875 0.71875 1.21875q0.53125 0.40625 1.5 0.40625q1.0625 0 1.609375 -0.390625q0.359375 -0.265625 0.359375 -0.734375q0 -0.3125 -0.203125 -0.515625q-0.203125 -0.1875 -0.90625 -0.359375q-3.328125 -0.734375 -4.21875 -1.34375q-1.234375 -0.828125 -1.234375 -2.328125q0 -1.34375 1.0625 -2.265625q1.078125 -0.921875 3.3125 -0.921875q2.125 0 3.15625 0.703125q1.046875 0.6875 1.4375 2.046875l-2.59375 0.46875q-0.171875 -0.59375 -0.640625 -0.921875q-0.453125 -0.328125 -1.3125 -0.328125q-1.078125 0 -1.546875 0.3125q-0.3125 0.21875 -0.3125 0.546875q0 0.296875 0.265625 0.5q0.375 0.28125 2.5625 0.78125q2.1875 0.5 3.0625 1.21875q0.859375 0.734375 0.859375 2.03125q0 1.4375 -1.1875 2.46875q-1.1875 1.015625 -3.53125 1.015625q-2.109375 0 -3.359375 -0.859375q-1.234375 -0.859375 -1.609375 -2.328125zm14.826172 -11.359375l0 5.265625q1.328125 -1.5625 3.171875 -1.5625q0.953125 0 1.703125 0.359375q0.765625 0.34375 1.15625 0.890625q0.390625 0.546875 0.53125 1.21875q0.140625 0.65625 0.140625 2.0625l0 6.078125l-2.75 0l0 -5.484375q0 -1.625 -0.15625 -2.0625q-0.15625 -0.4375 -0.5625 -0.6875q-0.390625 -0.265625 -0.984375 -0.265625q-0.671875 0 -1.21875 0.328125q-0.53125 0.328125 -0.78125 1.0q-0.25 0.671875 -0.25 1.96875l0 5.203125l-2.75 0l0 -14.3125l2.75 0zm24.085938 7.0l-2.703125 0.5q-0.140625 -0.8125 -0.625 -1.21875q-0.484375 -0.421875 -1.25 -0.421875q-1.03125 0 -1.640625 0.71875q-0.609375 0.703125 -0.609375 2.359375q0 1.84375 0.609375 2.609375q0.625 0.765625 1.671875 0.765625q0.78125 0 1.28125 -0.4375q0.5 -0.453125 0.703125 -1.53125l2.6875 0.453125q-0.40625 1.859375 -1.609375 2.8125q-1.1875 0.9375 -3.1875 0.9375q-2.28125 0 -3.640625 -1.4375q-1.34375 -1.4375 -1.34375 -3.96875q0 -2.578125 1.359375 -4.0q1.359375 -1.4375 3.671875 -1.4375q1.890625 0 3.0 0.828125q1.125 0.8125 1.625 2.46875zm4.123047 0.109375l-2.484375 -0.453125q0.421875 -1.5 1.4375 -2.21875q1.03125 -0.734375 3.046875 -0.734375q1.84375 0 2.734375 0.4375q0.90625 0.4375 1.265625 1.109375q0.375 0.65625 0.375 2.453125l-0.03125 3.203125q0 1.359375 0.125 2.015625q0.140625 0.640625 0.5 1.390625l-2.71875 0q-0.109375 -0.28125 -0.265625 -0.8125q-0.0625 -0.25 -0.09375 -0.328125q-0.703125 0.6875 -1.515625 1.03125q-0.796875 0.34375 -1.703125 0.34375q-1.59375 0 -2.515625 -0.859375q-0.921875 -0.875 -0.921875 -2.203125q0 -0.890625 0.40625 -1.578125q0.421875 -0.6875 1.171875 -1.046875q0.765625 -0.375 2.203125 -0.640625q1.921875 -0.359375 2.65625 -0.671875l0 -0.28125q0 -0.78125 -0.390625 -1.109375q-0.390625 -0.34375 -1.46875 -0.34375q-0.734375 0 -1.15625 0.28125q-0.40625 0.28125 -0.65625 1.015625zm3.671875 2.21875q-0.53125 0.171875 -1.671875 0.421875q-1.140625 0.25 -1.484375 0.484375q-0.546875 0.375 -0.546875 0.96875q0 0.5625 0.421875 0.984375q0.4375 0.421875 1.109375 0.421875q0.734375 0 1.40625 -0.484375q0.5 -0.375 0.65625 -0.90625q0.109375 -0.359375 0.109375 -1.34375l0 -0.546875zm14.841782 4.984375l-2.75 0l0 -5.296875q0 -1.671875 -0.171875 -2.15625q-0.171875 -0.5 -0.578125 -0.765625q-0.390625 -0.28125 -0.953125 -0.28125q-0.703125 0 -1.28125 0.390625q-0.5625 0.390625 -0.78125 1.03125q-0.203125 0.640625 -0.203125 2.375l0 4.703125l-2.7343597 0l0 -10.375l2.5468597 0l0 1.53125q1.359375 -1.765625 3.421875 -1.765625q0.90625 0 1.65625 0.328125q0.75 0.328125 1.125 0.84375q0.390625 0.5 0.546875 1.15625q0.15625 0.640625 0.15625 1.828125l0 6.453125zm12.294922 0l-2.546875 0l0 -1.53125q-0.640625 0.890625 -1.515625 1.328125q-0.859375 0.4375 -1.734375 0.4375q-1.78125 0 -3.0625 -1.4375q-1.265625 -1.4375 -1.265625 -4.015625q0 -2.640625 1.234375 -4.015625q1.234375 -1.375 3.140625 -1.375q1.734375 0 3.0 1.453125l0 -5.15625l2.75 0l0 14.3125zm-7.328125 -5.40625q0 1.65625 0.453125 2.390625q0.671875 1.078125 1.859375 1.078125q0.953125 0 1.609375 -0.796875q0.671875 -0.8125 0.671875 -2.40625q0 -1.796875 -0.65625 -2.578125q-0.640625 -0.78125 -1.640625 -0.78125q-0.984375 0 -1.640625 0.78125q-0.65625 0.765625 -0.65625 2.3125zm10.029297 5.40625l0 -14.3125l2.75 0l0 14.3125l-2.75 0zm11.556641 -3.296875l2.734375 0.453125q-0.515625 1.5 -1.65625 2.296875q-1.140625 0.78125 -2.84375 0.78125q-2.71875 0 -4.015625 -1.765625q-1.015625 -1.421875 -1.015625 -3.578125q0 -2.578125 1.34375 -4.03125q1.34375 -1.46875 3.40625 -1.46875q2.3125 0 3.640625 1.53125q1.34375 1.53125 1.296875 4.6875l-6.875 0q0.03125 1.21875 0.65625 1.90625q0.640625 0.671875 1.578125 0.671875q0.65625 0 1.09375 -0.34375q0.4375 -0.359375 0.65625 -1.140625zm0.15625 -2.78125q-0.03125 -1.1875 -0.625 -1.796875q-0.578125 -0.625 -1.40625 -0.625q-0.90625 0 -1.484375 0.640625q-0.59375 0.65625 -0.578125 1.78125l4.09375 0z" fill-rule="nonzero"/><path fill="#000000" fill-opacity="0.0" d="m420.1159 97.17269l0 182.10065" fill-rule="evenodd"/><path stroke="#595959" stroke-width="1.0" stroke-linejoin="round" stroke-linecap="butt" d="m420.1159 97.17269l0 182.10065" fill-rule="evenodd"/><path fill="#ff0000" d="m408.134 139.8432l23.963837 0l0 96.75963l-23.963837 0z" fill-rule="evenodd"/><path stroke="#595959" stroke-width="1.0" stroke-linejoin="round" stroke-linecap="butt" d="m408.134 139.8432l23.963837 0l0 96.75963l-23.963837 0z" fill-rule="evenodd"/><path fill="#000000" fill-opacity="0.0" d="m350.63837 140.2875l55.149597 0" fill-rule="evenodd"/><path stroke="#595959" stroke-width="1.0" stroke-linejoin="round" stroke-linecap="butt" d="m350.63837 140.28752l49.149597 0" fill-rule="evenodd"/><path fill="#595959" stroke="#595959" stroke-width="1.0" stroke-linecap="butt" d="m399.78796 141.93924l4.5381165 -1.6517181l-4.5381165 -1.6517334z" fill-rule="evenodd"/><path fill="#000000" fill-opacity="0.0" d="m318.04587 99.46651l101.543304 0l0 35.338577l-101.543304 0z" fill-rule="evenodd"/><path fill="#000000" d="m365.2298 125.24838q0 -2.859375 1.53125 -4.46875q1.53125 -1.609375 3.953125 -1.609375q1.578125 0 2.84375 0.765625q1.28125 0.75 1.953125 2.109375q0.671875 1.34375 0.671875 3.0625q0 1.75 -0.703125 3.125q-0.703125 1.375 -2.0 2.09375q-1.28125 0.703125 -2.78125 0.703125q-1.609375 0 -2.890625 -0.78125q-1.265625 -0.796875 -1.921875 -2.140625q-0.65625 -1.359375 -0.65625 -2.859375zm1.5625 0.015625q0 2.078125 1.109375 3.265625q1.109375 1.1875 2.796875 1.1875q1.703125 0 2.8125 -1.203125q1.109375 -1.203125 1.109375 -3.40625q0 -1.40625 -0.484375 -2.4375q-0.46875 -1.046875 -1.375 -1.625q-0.90625 -0.578125 -2.046875 -0.578125q-1.609375 0 -2.765625 1.109375q-1.15625 1.109375 -1.15625 3.6875zm11.1640625 8.75l0 -11.484375l1.28125 0l0 1.078125q0.453125 -0.640625 1.015625 -0.953125q0.578125 -0.3125 1.390625 -0.3125q1.0625 0 1.875 0.546875q0.8125 0.546875 1.21875 1.546875q0.421875 0.984375 0.421875 2.171875q0 1.28125 -0.46875 2.296875q-0.453125 1.015625 -1.328125 1.5625q-0.859375 0.546875 -1.828125 0.546875q-0.703125 0 -1.265625 -0.296875q-0.546875 -0.296875 -0.90625 -0.75l0 4.046875l-1.40625 0zm1.265625 -7.296875q0 1.609375 0.640625 2.375q0.65625 0.765625 1.578125 0.765625q0.9375 0 1.609375 -0.796875q0.671875 -0.796875 0.671875 -2.453125q0 -1.59375 -0.65625 -2.375q-0.65625 -0.796875 -1.5625 -0.796875q-0.890625 0 -1.59375 0.84375q-0.6875 0.84375 -0.6875 2.4375zm13.3046875 1.4375l1.453125 0.171875q-0.34375 1.28125 -1.28125 1.984375q-0.921875 0.703125 -2.359375 0.703125q-1.828125 0 -2.890625 -1.125q-1.0625 -1.125 -1.0625 -3.140625q0 -2.09375 1.078125 -3.25q1.078125 -1.15625 2.796875 -1.15625q1.65625 0 2.703125 1.140625q1.0625 1.125 1.0625 3.171875q0 0.125 0 0.375l-6.1875 0q0.078125 1.375 0.765625 2.109375q0.703125 0.71875 1.734375 0.71875q0.78125 0 1.328125 -0.40625q0.546875 -0.40625 0.859375 -1.296875zm-4.609375 -2.28125l4.625 0q-0.09375 -1.046875 -0.53125 -1.5625q-0.671875 -0.8125 -1.734375 -0.8125q-0.96875 0 -1.640625 0.65625q-0.65625 0.640625 -0.71875 1.71875zm7.8359375 4.953125l0 -8.296875l1.265625 0l0 1.171875q0.90625 -1.359375 2.640625 -1.359375q0.75 0 1.375 0.265625q0.625 0.265625 0.9375 0.703125q0.3125 0.4375 0.4375 1.046875q0.078125 0.390625 0.078125 1.359375l0 5.109375l-1.40625 0l0 -5.046875q0 -0.859375 -0.171875 -1.28125q-0.15625 -0.4375 -0.578125 -0.6875q-0.40625 -0.25 -0.96875 -0.25q-0.90625 0 -1.5625 0.578125q-0.640625 0.5625 -0.640625 2.15625l0 4.53125l-1.40625 0z" fill-rule="nonzero"/><path fill="#000000" fill-opacity="0.0" d="m435.0595 278.35974l55.149628 0" fill-rule="evenodd"/><path stroke="#595959" stroke-width="1.0" stroke-linejoin="round" stroke-linecap="butt" d="m441.0595 278.35974l49.149597 0" fill-rule="evenodd"/><path fill="#595959" stroke="#595959" stroke-width="1.0" stroke-linecap="butt" d="m441.0595 276.708l-4.538086 1.6517334l4.538086 1.6517334z" fill-rule="evenodd"/><path fill="#000000" fill-opacity="0.0" d="m417.5079 237.53874l101.543304 0l0 35.338577l-101.543304 0z" fill-rule="evenodd"/><path fill="#000000" d="m434.67978 268.89874l0 -11.453125l1.515625 0l0 10.09375l5.640625 0l0 1.359375l-7.15625 0zm8.2578125 -4.15625q0 -2.296875 1.28125 -3.40625q1.078125 -0.921875 2.609375 -0.921875q1.71875 0 2.796875 1.125q1.09375 1.109375 1.09375 3.09375q0 1.59375 -0.484375 2.515625q-0.484375 0.921875 -1.40625 1.4375q-0.90625 0.5 -2.0 0.5q-1.734375 0 -2.8125 -1.109375q-1.078125 -1.125 -1.078125 -3.234375zm1.453125 0q0 1.59375 0.6875 2.390625q0.703125 0.796875 1.75 0.796875q1.046875 0 1.734375 -0.796875q0.703125 -0.796875 0.703125 -2.4375q0 -1.53125 -0.703125 -2.328125q-0.6875 -0.796875 -1.734375 -0.796875q-1.046875 0 -1.75 0.796875q-0.6875 0.78125 -0.6875 2.375zm9.5078125 4.15625l-2.546875 -8.296875l1.453125 0l1.328125 4.78125l0.484375 1.78125q0.03125 -0.125 0.4375 -1.703125l1.3125 -4.859375l1.453125 0l1.234375 4.8125l0.421875 1.578125l0.46875 -1.59375l1.421875 -4.796875l1.375 0l-2.59375 8.296875l-1.46875 0l-1.3125 -4.96875l-0.328125 -1.421875l-1.671875 6.390625l-1.46875 0z" fill-rule="nonzero"/><path fill="#000000" fill-opacity="0.0" d="m434.87653 236.3824l55.149597 0" fill-rule="evenodd"/><path stroke="#595959" stroke-width="1.0" stroke-linejoin="round" stroke-linecap="butt" d="m440.87653 236.3824l49.149597 0" fill-rule="evenodd"/><path fill="#595959" stroke="#595959" stroke-width="1.0" stroke-linecap="butt" d="m440.87653 234.73067l-4.5381165 1.6517334l4.5381165 1.6517334z" fill-rule="evenodd"/><path fill="#000000" fill-opacity="0.0" d="m417.32492 195.5614l101.543304 0l0 35.338577l-101.543304 0z" fill-rule="evenodd"/><path fill="#000000" d="m442.73117 222.90578l1.515625 0.375q-0.46875 1.875 -1.71875 2.859375q-1.234375 0.984375 -3.015625 0.984375q-1.859375 0 -3.015625 -0.75q-1.15625 -0.765625 -1.765625 -2.1875q-0.609375 -1.4375 -0.609375 -3.078125q0 -1.796875 0.6875 -3.125q0.6875 -1.328125 1.9375 -2.015625q1.265625 -0.703125 2.78125 -0.703125q1.71875 0 2.890625 0.875q1.171875 0.875 1.640625 2.46875l-1.5 0.34375q-0.390625 -1.25 -1.15625 -1.8125q-0.75 -0.578125 -1.90625 -0.578125q-1.3125 0 -2.203125 0.640625q-0.890625 0.625 -1.25 1.703125q-0.359375 1.0625 -0.359375 2.1875q0 1.46875 0.421875 2.5625q0.4375 1.078125 1.328125 1.625q0.90625 0.53125 1.953125 0.53125q1.265625 0 2.140625 -0.734375q0.890625 -0.734375 1.203125 -2.171875zm3.1796875 4.015625l0 -11.453125l1.40625 0l0 11.453125l-1.40625 0zm3.0546875 -4.15625q0 -2.296875 1.28125 -3.40625q1.078125 -0.921875 2.609375 -0.921875q1.71875 0 2.796875 1.125q1.09375 1.109375 1.09375 3.09375q0 1.59375 -0.484375 2.515625q-0.484375 0.921875 -1.40625 1.4375q-0.90625 0.5 -2.0 0.5q-1.734375 0 -2.8125 -1.109375q-1.078125 -1.125 -1.078125 -3.234375zm1.453125 0q0 1.59375 0.6875 2.390625q0.703125 0.796875 1.75 0.796875q1.046875 0 1.734375 -0.796875q0.703125 -0.796875 0.703125 -2.4375q0 -1.53125 -0.703125 -2.328125q-0.6875 -0.796875 -1.734375 -0.796875q-1.046875 0 -1.75 0.796875q-0.6875 0.78125 -0.6875 2.375zm7.4140625 1.671875l1.390625 -0.21875q0.109375 0.84375 0.640625 1.296875q0.546875 0.4375 1.5 0.4375q0.96875 0 1.4375 -0.390625q0.46875 -0.40625 0.46875 -0.9375q0 -0.46875 -0.40625 -0.75q-0.296875 -0.1875 -1.4375 -0.46875q-1.546875 -0.390625 -2.15625 -0.671875q-0.59375 -0.296875 -0.90625 -0.796875q-0.296875 -0.5 -0.296875 -1.109375q0 -0.5625 0.25 -1.03125q0.25 -0.46875 0.6875 -0.78125q0.328125 -0.25 0.890625 -0.40625q0.578125 -0.171875 1.21875 -0.171875q0.984375 0 1.71875 0.28125q0.734375 0.28125 1.078125 0.765625q0.359375 0.46875 0.5 1.28125l-1.375 0.1875q-0.09375 -0.640625 -0.546875 -1.0q-0.453125 -0.359375 -1.265625 -0.359375q-0.96875 0 -1.390625 0.328125q-0.40625 0.3125 -0.40625 0.734375q0 0.28125 0.171875 0.5q0.171875 0.21875 0.53125 0.375q0.21875 0.078125 1.25 0.359375q1.484375 0.390625 2.078125 0.65625q0.59375 0.25 0.921875 0.734375q0.34375 0.484375 0.34375 1.203125q0 0.703125 -0.421875 1.328125q-0.40625 0.609375 -1.1875 0.953125q-0.765625 0.34375 -1.734375 0.34375q-1.625 0 -2.46875 -0.671875q-0.84375 -0.671875 -1.078125 -2.0zm14.234375 -0.1875l1.453125 0.171875q-0.34375 1.28125 -1.28125 1.984375q-0.921875 0.703125 -2.359375 0.703125q-1.828125 0 -2.890625 -1.125q-1.0625 -1.125 -1.0625 -3.140625q0 -2.09375 1.078125 -3.25q1.078125 -1.15625 2.796875 -1.15625q1.65625 0 2.703125 1.140625q1.0625 1.125 1.0625 3.171875q0 0.125 0 0.375l-6.1875 0q0.078125 1.375 0.765625 2.109375q0.703125 0.71875 1.734375 0.71875q0.78125 0 1.328125 -0.40625q0.546875 -0.40625 0.859375 -1.296875zm-4.609375 -2.28125l4.625 0q-0.09375 -1.046875 -0.53125 -1.5625q-0.671875 -0.8125 -1.734375 -0.8125q-0.96875 0 -1.640625 0.65625q-0.65625 0.640625 -0.71875 1.71875z" fill-rule="nonzero"/><path fill="#000000" fill-opacity="0.0" d="m434.50513 95.720085l55.149597 0" fill-rule="evenodd"/><path stroke="#595959" stroke-width="1.0" stroke-linejoin="round" stroke-linecap="butt" d="m440.50513 95.720085l49.149597 0" fill-rule="evenodd"/><path fill="#595959" stroke="#595959" stroke-width="1.0" stroke-linecap="butt" d="m440.50513 94.06835l-4.538086 1.6517334l4.538086 1.6517334z" fill-rule="evenodd"/><path fill="#000000" fill-opacity="0.0" d="m416.95352 54.89907l101.543304 0l0 35.338585l-101.543304 0z" fill-rule="evenodd"/><path fill="#000000" d="m434.23477 86.25907l0 -11.453125l1.515625 0l0 4.703125l5.953125 0l0 -4.703125l1.515625 0l0 11.453125l-1.515625 0l0 -5.40625l-5.953125 0l0 5.40625l-1.515625 0zm11.3359375 -9.84375l0 -1.609375l1.40625 0l0 1.609375l-1.40625 0zm0 9.84375l0 -8.296875l1.40625 0l0 8.296875l-1.40625 0zm3.2890625 0.6875l1.375 0.203125q0.078125 0.640625 0.46875 0.921875q0.53125 0.390625 1.4375 0.390625q0.96875 0 1.5 -0.390625q0.53125 -0.390625 0.71875 -1.09375q0.109375 -0.421875 0.109375 -1.8125q-0.921875 1.09375 -2.296875 1.09375q-1.71875 0 -2.65625 -1.234375q-0.9375 -1.234375 -0.9375 -2.96875q0 -1.1875 0.421875 -2.1875q0.4375 -1.0 1.25 -1.546875q0.828125 -0.546875 1.921875 -0.546875q1.46875 0 2.421875 1.1875l0 -1.0l1.296875 0l0 7.171875q0 1.9375 -0.390625 2.75q-0.390625 0.8125 -1.25 1.28125q-0.859375 0.46875 -2.109375 0.46875q-1.484375 0 -2.40625 -0.671875q-0.90625 -0.671875 -0.875 -2.015625zm1.171875 -4.984375q0 1.625 0.640625 2.375q0.65625 0.75 1.625 0.75q0.96875 0 1.625 -0.734375q0.65625 -0.75 0.65625 -2.34375q0 -1.53125 -0.671875 -2.296875q-0.671875 -0.78125 -1.625 -0.78125q-0.9375 0 -1.59375 0.765625q-0.65625 0.765625 -0.65625 2.265625zm7.9921875 4.296875l0 -11.453125l1.40625 0l0 4.109375q0.984375 -1.140625 2.484375 -1.140625q0.921875 0 1.59375 0.359375q0.6875 0.359375 0.96875 1.0q0.296875 0.640625 0.296875 1.859375l0 5.265625l-1.40625 0l0 -5.265625q0 -1.046875 -0.453125 -1.53125q-0.453125 -0.484375 -1.296875 -0.484375q-0.625 0 -1.171875 0.328125q-0.546875 0.328125 -0.78125 0.890625q-0.234375 0.546875 -0.234375 1.515625l0 4.546875l-1.40625 0z" fill-rule="nonzero"/><path fill="#000000" fill-opacity="0.0" d="m322.0055 15.716536l196.22046 0l0 35.338585l-196.22046 0z" fill-rule="evenodd"/><path fill="#000000" d="m350.4419 36.60403l5.71875 0q1.703125 0 2.53125 0.140625q0.84375 0.140625 1.5 0.59375q0.65625 0.4375 1.09375 1.1875q0.4375 0.75 0.4375 1.671875q0 1.015625 -0.546875 1.859375q-0.53125 0.828125 -1.453125 1.25q1.296875 0.375 2.0 1.296875q0.703125 0.921875 0.703125 2.15625q0 0.984375 -0.453125 1.90625q-0.453125 0.921875 -1.234375 1.484375q-0.78125 0.546875 -1.9375 0.671875q-0.71875 0.078125 -3.484375 0.09375l-4.875 0l0 -14.3125zm2.890625 2.375l0 3.3125l1.890625 0q1.6875 0 2.09375 -0.046875q0.75 -0.09375 1.171875 -0.515625q0.421875 -0.421875 0.421875 -1.109375q0 -0.671875 -0.375 -1.078125q-0.359375 -0.421875 -1.078125 -0.515625q-0.421875 -0.046875 -2.46875 -0.046875l-1.65625 0zm0 5.703125l0 3.828125l2.671875 0q1.5625 0 1.984375 -0.09375q0.640625 -0.125 1.046875 -0.578125q0.40625 -0.453125 0.40625 -1.203125q0 -0.65625 -0.3125 -1.09375q-0.3125 -0.453125 -0.90625 -0.65625q-0.59375 -0.203125 -2.5625 -0.203125l-2.328125 0zm17.521484 2.9375l2.734375 0.453125q-0.515625 1.5 -1.65625 2.296875q-1.140625 0.78125 -2.84375 0.78125q-2.71875 0 -4.015625 -1.765625q-1.015625 -1.421875 -1.015625 -3.578125q0 -2.578125 1.34375 -4.03125q1.34375 -1.46875 3.40625 -1.46875q2.3125 0 3.640625 1.53125q1.34375 1.53125 1.296875 4.6875l-6.875 0q0.03125 1.21875 0.65625 1.90625q0.640625 0.671875 1.578125 0.671875q0.65625 0 1.09375 -0.34375q0.4375 -0.359375 0.65625 -1.140625zm0.15625 -2.78125q-0.03125 -1.1875 -0.625 -1.796875q-0.578125 -0.625 -1.40625 -0.625q-0.90625 0 -1.484375 0.640625q-0.59375 0.65625 -0.578125 1.78125l4.09375 0zm7.013672 -1.125l-2.484375 -0.453125q0.421875 -1.5 1.4375 -2.21875q1.03125 -0.734375 3.046875 -0.734375q1.84375 0 2.734375 0.4375q0.90625 0.4375 1.265625 1.109375q0.375 0.65625 0.375 2.453125l-0.03125 3.203125q0 1.359375 0.125 2.015625q0.140625 0.640625 0.5 1.390625l-2.71875 0q-0.109375 -0.28125 -0.265625 -0.8125q-0.0625 -0.25 -0.09375 -0.328125q-0.703125 0.6875 -1.515625 1.03125q-0.796875 0.34375 -1.703125 0.34375q-1.59375 0 -2.515625 -0.859375q-0.921875 -0.875 -0.921875 -2.203125q0 -0.890625 0.40625 -1.578125q0.421875 -0.6875 1.171875 -1.046875q0.765625 -0.375 2.203125 -0.640625q1.921875 -0.359375 2.65625 -0.671875l0 -0.28125q0 -0.78125 -0.390625 -1.109375q-0.390625 -0.34375 -1.46875 -0.34375q-0.734375 0 -1.15625 0.28125q-0.40625 0.28125 -0.65625 1.015625zm3.671875 2.21875q-0.53125 0.171875 -1.671875 0.421875q-1.140625 0.25 -1.484375 0.484375q-0.546875 0.375 -0.546875 0.96875q0 0.5625 0.421875 0.984375q0.4375 0.421875 1.109375 0.421875q0.734375 0 1.40625 -0.484375q0.5 -0.375 0.65625 -0.90625q0.109375 -0.359375 0.109375 -1.34375l0 -0.546875zm8.029297 4.984375l-2.75 0l0 -10.375l2.5625 0l0 1.484375q0.640625 -1.046875 1.15625 -1.375q0.53125 -0.34375 1.203125 -0.34375q0.9375 0 1.796875 0.515625l-0.84375 2.390625q-0.6875 -0.4375 -1.28125 -0.4375q-0.578125 0 -0.984375 0.3125q-0.40625 0.3125 -0.640625 1.15625q-0.21875 0.828125 -0.21875 3.46875l0 3.203125zm5.158203 -11.78125l0 -2.53125l2.75 0l0 2.53125l-2.75 0zm0 11.78125l0 -10.375l2.75 0l0 10.375l-2.75 0zm4.5878906 -2.953125l2.75 -0.421875q0.1875 0.796875 0.71875 1.21875q0.53125 0.40625 1.5 0.40625q1.0625 0 1.609375 -0.390625q0.359375 -0.265625 0.359375 -0.734375q0 -0.3125 -0.203125 -0.515625q-0.203125 -0.1875 -0.90625 -0.359375q-3.328125 -0.734375 -4.21875 -1.34375q-1.234375 -0.828125 -1.234375 -2.328125q0 -1.34375 1.0625 -2.265625q1.078125 -0.921875 3.3125 -0.921875q2.125 0 3.15625 0.703125q1.046875 0.6875 1.4375 2.046875l-2.59375 0.46875q-0.171875 -0.59375 -0.640625 -0.921875q-0.453125 -0.328125 -1.3125 -0.328125q-1.078125 0 -1.546875 0.3125q-0.3125 0.21875 -0.3125 0.546875q0 0.296875 0.265625 0.5q0.375 0.28125 2.5625 0.78125q2.1875 0.5 3.0625 1.21875q0.859375 0.734375 0.859375 2.03125q0 1.4375 -1.1875 2.46875q-1.1875 1.015625 -3.53125 1.015625q-2.109375 0 -3.359375 -0.859375q-1.234375 -0.859375 -1.609375 -2.328125zm14.826172 -11.359375l0 5.265625q1.328125 -1.5625 3.171875 -1.5625q0.953125 0 1.703125 0.359375q0.765625 0.34375 1.15625 0.890625q0.390625 0.546875 0.53125 1.21875q0.140625 0.65625 0.140625 2.0625l0 6.078125l-2.75 0l0 -5.484375q0 -1.625 -0.15625 -2.0625q-0.15625 -0.4375 -0.5625 -0.6875q-0.390625 -0.265625 -0.984375 -0.265625q-0.671875 0 -1.21875 0.328125q-0.53125 0.328125 -0.78125 1.0q-0.25 0.671875 -0.25 1.96875l0 5.203125l-2.75 0l0 -14.3125l2.75 0zm24.085938 7.0l-2.703125 0.5q-0.140625 -0.8125 -0.625 -1.21875q-0.484375 -0.421875 -1.25 -0.421875q-1.03125 0 -1.640625 0.71875q-0.609375 0.703125 -0.609375 2.359375q0 1.84375 0.609375 2.609375q0.625 0.765625 1.671875 0.765625q0.78125 0 1.28125 -0.4375q0.5 -0.453125 0.703125 -1.53125l2.6875 0.453125q-0.40625 1.859375 -1.609375 2.8125q-1.1875 0.9375 -3.1875 0.9375q-2.28125 0 -3.640625 -1.4375q-1.34375 -1.4375 -1.34375 -3.96875q0 -2.578125 1.359375 -4.0q1.359375 -1.4375 3.671875 -1.4375q1.890625 0 3.0 0.828125q1.125 0.8125 1.625 2.46875zm4.123047 0.109375l-2.484375 -0.453125q0.421875 -1.5 1.4375 -2.21875q1.03125 -0.734375 3.046875 -0.734375q1.84375 0 2.734375 0.4375q0.90625 0.4375 1.265625 1.109375q0.375 0.65625 0.375 2.453125l-0.03125 3.203125q0 1.359375 0.125 2.015625q0.140625 0.640625 0.5 1.390625l-2.71875 0q-0.109375 -0.28125 -0.265625 -0.8125q-0.0625 -0.25 -0.09375 -0.328125q-0.703125 0.6875 -1.515625 1.03125q-0.796875 0.34375 -1.703125 0.34375q-1.59375 0 -2.515625 -0.859375q-0.921875 -0.875 -0.921875 -2.203125q0 -0.890625 0.40625 -1.578125q0.421875 -0.6875 1.171875 -1.046875q0.765625 -0.375 2.203125 -0.640625q1.921875 -0.359375 2.65625 -0.671875l0 -0.28125q0 -0.78125 -0.390625 -1.109375q-0.390625 -0.34375 -1.46875 -0.34375q-0.734375 0 -1.15625 0.28125q-0.40625 0.28125 -0.65625 1.015625zm3.671875 2.21875q-0.53125 0.171875 -1.671875 0.421875q-1.140625 0.25 -1.484375 0.484375q-0.546875 0.375 -0.546875 0.96875q0 0.5625 0.421875 0.984375q0.4375 0.421875 1.109375 0.421875q0.734375 0 1.40625 -0.484375q0.5 -0.375 0.65625 -0.90625q0.109375 -0.359375 0.109375 -1.34375l0 -0.546875zm14.841797 4.984375l-2.75 0l0 -5.296875q0 -1.671875 -0.171875 -2.15625q-0.171875 -0.5 -0.578125 -0.765625q-0.390625 -0.28125 -0.953125 -0.28125q-0.703125 0 -1.28125 0.390625q-0.5625 0.390625 -0.78125 1.03125q-0.203125 0.640625 -0.203125 2.375l0 4.703125l-2.734375 0l0 -10.375l2.546875 0l0 1.53125q1.359375 -1.765625 3.421875 -1.765625q0.90625 0 1.65625 0.328125q0.75 0.328125 1.125 0.84375q0.390625 0.5 0.546875 1.15625q0.15625 0.640625 0.15625 1.828125l0 6.453125zm12.294922 0l-2.546875 0l0 -1.53125q-0.640625 0.890625 -1.515625 1.328125q-0.859375 0.4375 -1.734375 0.4375q-1.78125 0 -3.0625 -1.4375q-1.265625 -1.4375 -1.265625 -4.015625q0 -2.640625 1.234375 -4.015625q1.234375 -1.375 3.140625 -1.375q1.734375 0 3.0 1.453125l0 -5.15625l2.75 0l0 14.3125zm-7.328125 -5.40625q0 1.65625 0.453125 2.390625q0.671875 1.078125 1.859375 1.078125q0.953125 0 1.609375 -0.796875q0.671875 -0.8125 0.671875 -2.40625q0 -1.796875 -0.65625 -2.578125q-0.640625 -0.78125 -1.640625 -0.78125q-0.984375 0 -1.640625 0.78125q-0.65625 0.765625 -0.65625 2.3125zm10.029297 5.40625l0 -14.3125l2.75 0l0 14.3125l-2.75 0zm11.556641 -3.296875l2.734375 0.453125q-0.515625 1.5 -1.65625 2.296875q-1.140625 0.78125 -2.84375 0.78125q-2.71875 0 -4.015625 -1.765625q-1.015625 -1.421875 -1.015625 -3.578125q0 -2.578125 1.34375 -4.03125q1.34375 -1.46875 3.40625 -1.46875q2.3125 0 3.640625 1.53125q1.34375 1.53125 1.296875 4.6875l-6.875 0q0.03125 1.21875 0.65625 1.90625q0.640625 0.671875 1.578125 0.671875q0.65625 0 1.09375 -0.34375q0.4375 -0.359375 0.65625 -1.140625zm0.15625 -2.78125q-0.03125 -1.1875 -0.625 -1.796875q-0.578125 -0.625 -1.40625 -0.625q-0.90625 0 -1.484375 0.640625q-0.59375 0.65625 -0.578125 1.78125l4.09375 0z" fill-rule="nonzero"/></g></svg>